<?xml version="1.0" encoding="UTF-8"?>
<!-- Generator: Adobe Illustrator 27.0.0, SVG Export Plug-In . SVG Version: 6.00 Build 0)  -->
<svg version="1.1" id="Layer_1" xmlns="http://www.w3.org/2000/svg" xmlns:xlink="http://www.w3.org/1999/xlink" x="0px" y="0px" viewBox="0 0 831.9 106.3" style="enable-background:new 0 0 831.9 106.3;" xml:space="preserve">
<style type="text/css">
	.st0{fill:#0000FF;}
</style>
<g>
	<path class="st0" d="M5.2,63.9c0-22.6,13.4-36,35.7-36c18.9,0,31.2,9.9,33.9,27H56.9c-2.3-8-7.9-12.7-16-12.7   c-10.8,0-17.1,8.1-17.1,21.6s6.3,21.5,17.1,21.5c8.5,0,14.2-5,16.3-13.5h17.9c-2.6,17.8-14.9,28-34.2,28   C18.6,99.9,5.2,86.5,5.2,63.9z"/>
	<path class="st0" d="M124.9,29.3h18.2v69.2h-18.2V74.1h-0.3c0,16.1-8,25.8-21.6,25.8c-14.9,0-23.7-10.6-23.7-28.4V29.3h18.2v41.4   c0,9.4,4.8,14.8,13,14.8c9.1,0,14.5-6.9,14.5-18.8V29.3z"/>
	<path class="st0" d="M148.3,76h17c0,7.7,5.4,12.3,14.5,12.3c8.8,0,13.9-3.3,13.9-9.1c0-7.3-8.1-8.7-17.2-10.2   c-12-1.9-26.3-4.3-26.3-20.1c0-13.1,11-21,29.6-21c18.5,0,29.5,8.4,29.5,22.8h-17c0-7.3-4.5-11.4-12.5-11.4c-7.6,0-12.1,3-12.1,8.1   c0,6.2,7.6,7.4,16.4,9c12.3,2.1,27.2,4.5,27.2,20.8c0,14.2-11.7,22.8-31.4,22.8C159.9,99.9,148.3,91,148.3,76z"/>
	<path class="st0" d="M259.6,41.8h-21.5v33.4c0,6.5,4.1,10.2,11,10.2c3.3,0,6.8-0.8,9.2-2.2v13.5c-4.1,1.9-9.8,3.2-15,3.2   c-14.8,0-23.4-8.3-23.4-22.3V41.8h-9.9V29.3h11V6.1h18.2v5.8c0,8.8-6.6,15-17.6,17.1v0.3h38.1V41.8z"/>
	<path class="st0" d="M258.5,63.9c0-22.6,13.5-36,36.1-36s36,13.4,36,36s-13.4,36-36,36S258.5,86.5,258.5,63.9z M312.1,63.9   c0-13.5-6.5-21.6-17.5-21.6s-17.5,8.1-17.5,21.6s6.5,21.5,17.5,21.5S312.1,77.4,312.1,63.9z"/>
	<path class="st0" d="M446,55.6v42.9h-18.2V56.4c0-9-4.8-14.2-13-14.2c-9.1,0-14.5,6.8-14.5,18.1v38.2h-18.2V56.4   c0-9-4.7-14.2-12.8-14.2c-9.2,0-14.6,6.8-14.6,18.1v38.2h-18.2V29.3h18.2v24h0.3c0-16,8.4-25.4,22.3-25.4c14.5,0,23,9.8,23,25.4   h0.3c0-16,8-25.4,21.6-25.4C437.2,27.9,446,38.1,446,55.6z"/>
	<path class="st0" d="M519.3,65.9h-50.5c0.7,12.7,6.8,20.1,16.5,20.1c8.5,0,14.5-4.7,16.3-12.3h17.6c-2.5,16.4-15.2,26.1-33.9,26.1   c-21.5,0-34.2-13.4-34.2-36c0-22.8,12.7-36,34.2-36c21.2,0,33.9,13.2,33.9,36V65.9z M469,59.7h32.5c-1.1-11.6-7-18.2-16.1-18.2   C476.2,41.5,470.3,48.2,469,59.7z"/>
	<path class="st0" d="M575.2,30.1l-5.2,16.3c-2.8-1.5-6.2-2.5-9.7-2.5c-10.6,0-17,8.7-17,23.3v31.3h-18.2V29.3h18.2v28.5h0.3   c0-18.9,7.9-29.9,21-29.9C568.6,27.9,572.4,28.7,575.2,30.1z"/>
	<path class="st0" d="M570.5,76h17c0,7.7,5.4,12.3,14.5,12.3c8.8,0,13.9-3.3,13.9-9.1c0-7.3-8.1-8.7-17.2-10.2   c-12-1.9-26.3-4.3-26.3-20.1c0-13.1,11-21,29.6-21c18.5,0,29.5,8.4,29.5,22.8h-17c0-7.3-4.5-11.4-12.5-11.4c-7.6,0-12.1,3-12.1,8.1   c0,6.2,7.6,7.4,16.4,9c12.3,2.1,27.2,4.5,27.2,20.8c0,14.2-11.7,22.8-31.4,22.8C582.1,99.9,570.5,91,570.5,76z"/>
</g>
<g>
	<path class="st0" d="M699.9,18.1v80h-19V23h-0.3c0,17-7.6,26.9-20.3,26.9V33.4c13,0,20.5-5.8,20.5-15.3H699.9z"/>
	<path class="st0" d="M707.5,75.6h17c0,7.7,5.4,12.3,14.5,12.3c8.8,0,13.9-3.3,13.9-9.1c0-7.3-8.1-8.7-17.2-10.2   c-12-1.9-26.3-4.3-26.3-20.1c0-13.1,11-21,29.6-21c18.5,0,29.5,8.4,29.5,22.8h-17c0-7.3-4.5-11.4-12.5-11.4c-7.6,0-12.1,3-12.1,8.1   c0,6.2,7.6,7.4,16.4,9c12.3,2.1,27.2,4.5,27.2,20.8c0,14.2-11.7,22.8-31.4,22.8C719.1,99.5,707.5,90.7,707.5,75.6z"/>
	<path class="st0" d="M818.8,41.4h-21.5v33.4c0,6.5,4.1,10.2,11,10.2c3.3,0,6.8-0.8,9.2-2.2v13.5c-4.1,1.9-9.8,3.2-15,3.2   c-14.8,0-23.4-8.3-23.4-22.3V41.4h-9.9V28.9h11V5.7h18.2v5.8c0,8.8-6.6,15-17.6,17.1v0.3h38.1V41.4z"/>
</g>
</svg>