<?xml version="1.0" encoding="utf-8"?>
<!-- Generator: Adobe Illustrator 25.4.1, SVG Export Plug-In . SVG Version: 6.00 Build 0)  -->
<svg version="1.1" id="Lag_1" xmlns="http://www.w3.org/2000/svg" xmlns:xlink="http://www.w3.org/1999/xlink" x="0px" y="0px"
	 viewBox="0 0 288.8 44.7" style="enable-background:new 0 0 288.8 44.7;" xml:space="preserve">
<style type="text/css">
	.st0{enable-background:new    ;}
	.st1{fill:#57B145;}
	.st2{fill:#252C36;}
</style>
<g class="st0">
	<path class="st1" d="M0.3,16.7c0-5.3,4.2-7.9,12.7-7.9c8.9,0,13.4,2.3,13.4,7c0,0.4-0.1,0.8-0.4,1.1c-0.3,0.3-0.6,0.4-1.1,0.4h-3.6
		c-1.2,0-2.1-0.4-2.8-1.3c-0.9-1.1-2.5-1.7-4.9-1.7c-3.2,0-4.9,0.8-4.8,2.3c0,0.7,0.6,1.3,1.9,1.8s2.8,0.9,4.6,1.3
		c1.8,0.4,3.6,0.8,5.4,1.4c1.8,0.6,3.3,1.5,4.6,2.7c1.3,1.2,1.9,2.8,1.9,4.7c0,5.3-4.5,7.9-13.5,7.9c-8.9,0-13.4-2.3-13.4-7
		c0-0.4,0.1-0.8,0.4-1.1C1.1,28.2,1.4,28,1.9,28h3.6c1.2,0,2.1,0.4,2.8,1.3c0.9,1.1,2.5,1.7,4.9,1.6c3.7,0,5.6-0.8,5.6-2.3
		c0-0.7-0.6-1.3-1.9-1.8c-1.3-0.5-2.8-0.9-4.6-1.3c-1.8-0.4-3.6-0.9-5.4-1.4c-1.8-0.6-3.3-1.5-4.6-2.7C0.9,20.1,0.3,18.5,0.3,16.7z"
		/>
	<path class="st1" d="M33.9,33c-2.5-2.3-3.8-5.8-3.8-10.3s1.3-8,3.8-10.4c2.5-2.4,6-3.6,10.5-3.6c4.5,0,8,1.2,10.5,3.6
		c2.5,2.4,3.8,5.8,3.8,10.3v1.4c0,0.5-0.1,0.8-0.4,1.1c-0.3,0.3-0.6,0.4-1.1,0.4H38.8c0.2,1.9,0.7,3.2,1.7,4.1
		c1,0.8,2.5,1.3,4.5,1.3c2.3,0,3.9-0.5,4.8-1.6c0.7-0.9,1.6-1.3,2.8-1.3h3.6c0.4,0,0.8,0.2,1.1,0.5c0.3,0.3,0.4,0.7,0.4,1.2
		c0,4.6-4.5,6.9-13.4,6.9C39.9,36.5,36.4,35.3,33.9,33z M38.7,20.1h11.4c-0.2-3.8-2-5.8-5.7-5.8C40.8,14.3,38.9,16.2,38.7,20.1z"/>
	<path class="st1" d="M63.2,34.5V10.8c0-0.4,0.1-0.8,0.4-1.1c0.3-0.3,0.6-0.4,1.1-0.4h5.5c0.4,0,0.8,0.1,1.1,0.4
		c0.3,0.3,0.4,0.6,0.4,1.1v1.5c1.7-1.2,3.3-2.1,4.8-2.6c1.5-0.6,3.6-0.9,6-0.9c0.4,0,0.8,0.1,1.1,0.4c0.3,0.3,0.4,0.6,0.4,1v3.7
		c0,0.4-0.1,0.8-0.4,1.1c-0.3,0.3-0.6,0.4-1.1,0.4h-0.8c-0.4,0-1,0-1.8-0.1c-0.8,0-1.5-0.1-1.9-0.1c-2.2,0-4.3,1.2-6.3,3.6v15.7
		c0,0.4-0.1,0.8-0.4,1.1c-0.3,0.3-0.6,0.4-1.1,0.4h-5.5c-0.4,0-0.8-0.1-1.1-0.4C63.3,35.3,63.2,35,63.2,34.5z"/>
	<path class="st1" d="M85.1,9.9c0.2-0.4,0.6-0.6,1.1-0.6h4.7c0.7,0,1.4,0.2,2,0.6c0.6,0.4,1.1,0.9,1.3,1.6l6.7,15.2l6.6-15.2
		c0.3-0.6,0.7-1.2,1.3-1.6c0.6-0.4,1.3-0.6,2-0.6h4.7c0.6,0,0.9,0.2,1.1,0.6c0.1,0.2,0.1,0.4,0.1,0.6c0,0.3-0.1,0.6-0.2,1L106,33.9
		c-0.3,0.6-0.8,1.2-1.4,1.6c-0.6,0.4-1.3,0.6-1.9,0.6h-3.6c-0.7,0-1.3-0.2-1.9-0.6c-0.6-0.4-1.1-0.9-1.4-1.6L85.2,11.4
		c-0.2-0.4-0.2-0.7-0.2-1C85,10.3,85,10.1,85.1,9.9z"/>
	<path class="st1" d="M120.3,4.2V3.4c0-0.9,0.2-1.6,0.7-2.1c0.5-0.5,1.2-0.8,2.1-0.8h3c0.9,0,1.5,0.3,2.1,0.8
		c0.5,0.5,0.8,1.2,0.8,2.1v0.8c0,0.9-0.2,1.6-0.7,2.1c-0.5,0.5-1.2,0.8-2.1,0.8h-3c-0.9,0-1.5-0.3-2.1-0.8
		C120.5,5.8,120.3,5.1,120.3,4.2z M120.4,34.5V11.5c0-0.4,0.1-0.8,0.4-1.1c0.3-0.3,0.6-0.4,1.1-0.4h5.5c0.4,0,0.8,0.1,1.1,0.4
		c0.3,0.3,0.4,0.6,0.4,1.1v23.1c0,0.4-0.1,0.8-0.4,1.1c-0.3,0.3-0.6,0.4-1.1,0.4h-5.5c-0.4,0-0.8-0.1-1.1-0.4
		C120.5,35.3,120.4,35,120.4,34.5z"/>
	<path class="st1" d="M133.4,22.7c0-4.6,1.3-8,3.8-10.4c2.5-2.3,6.1-3.5,10.7-3.5c4.4,0,7.8,0.7,10.2,2.1s3.6,3.5,3.6,6.3
		c0,0.4-0.1,0.8-0.4,1.1c-0.3,0.3-0.7,0.4-1.1,0.4h-3.7c-1.1,0-2.1-0.6-2.8-1.8c-1-1.5-2.7-2.3-5.3-2.3c-2.4,0-4,0.6-5,1.9
		c-1,1.2-1.5,3.3-1.5,6.1c0,2.8,0.5,4.8,1.5,6.1c1,1.3,2.8,1.9,5.2,1.9c2.6,0,4.3-0.8,5.3-2.3c0.8-1.2,1.7-1.8,2.8-1.8h3.7
		c0.4,0,0.8,0.1,1.1,0.4c0.3,0.3,0.4,0.6,0.4,1c0,2.8-1.2,4.9-3.6,6.4s-5.8,2.2-10.2,2.2c-4.8,0-8.4-1.2-11-3.5
		S133.4,27.2,133.4,22.7z"/>
	<path class="st1" d="M168.2,33c-2.5-2.3-3.8-5.8-3.8-10.3s1.3-8,3.8-10.4c2.5-2.4,6-3.6,10.5-3.6c4.5,0,8,1.2,10.5,3.6
		c2.5,2.4,3.8,5.8,3.8,10.3v1.4c0,0.5-0.1,0.8-0.4,1.1c-0.3,0.3-0.6,0.4-1.1,0.4h-18.4c0.2,1.9,0.7,3.2,1.7,4.1
		c1,0.8,2.5,1.3,4.5,1.3c2.3,0,3.9-0.5,4.8-1.6c0.7-0.9,1.6-1.3,2.8-1.3h3.6c0.4,0,0.8,0.2,1.1,0.5c0.3,0.3,0.4,0.7,0.4,1.2
		c0,4.6-4.5,6.9-13.4,6.9C174.2,36.5,170.7,35.3,168.2,33z M173,20.1h11.4c-0.2-3.8-2-5.8-5.7-5.8C175.1,14.3,173.2,16.2,173,20.1z"
		/>
</g>
<g class="st0">
	<path class="st2" d="M197.4,42.8v-32c0-0.4,0.1-0.8,0.4-1.1c0.3-0.3,0.6-0.4,1.1-0.4h4.7c0.4,0,0.8,0.1,1.1,0.4
		c0.3,0.3,0.4,0.6,0.4,1.1v0.7c2.5-1.8,5.4-2.8,8.4-2.7c3.6,0,6.6,1.2,8.8,3.6c2.3,2.4,3.4,5.8,3.4,10.2c0,4.5-1.2,7.9-3.5,10.3
		c-2.3,2.4-5.4,3.6-9.4,3.6c-2.1,0-4.4-0.4-7.1-1.2v7.5c0,0.4-0.1,0.8-0.4,1.1c-0.3,0.3-0.6,0.4-1.1,0.4h-5.5
		c-0.4,0-0.8-0.1-1.1-0.4C197.6,43.6,197.4,43.2,197.4,42.8z M205.9,29.6c2.1,0.7,3.9,1,5.3,1c2.2,0,3.8-0.6,4.7-1.9
		c0.9-1.3,1.4-3.3,1.4-6.1c0-2.8-0.4-4.8-1.3-6c-0.9-1.3-2.3-1.9-4.3-1.9c-1.5,0-3.5,0.7-5.8,2.2V29.6z"/>
	<path class="st2" d="M232.8,33c-2.5-2.3-3.8-5.8-3.8-10.4c0-4.6,1.3-8,3.8-10.4c2.5-2.3,6.2-3.5,10.9-3.5c4.8,0,8.4,1.2,11,3.5
		c2.5,2.3,3.8,5.8,3.8,10.4c0,4.6-1.3,8-3.8,10.4s-6.2,3.5-11,3.5C239,36.5,235.3,35.3,232.8,33z M239,16.3c-1,1.3-1.5,3.4-1.5,6.3
		c0,2.9,0.5,5,1.5,6.3c1,1.3,2.6,2,4.8,2s3.8-0.7,4.8-2c1-1.3,1.5-3.5,1.5-6.3c0-2.9-0.5-5-1.5-6.3c-1-1.3-2.6-2-4.8-2
		S240,15,239,16.3z"/>
	<path class="st2" d="M261.5,16.7c0-5.3,4.2-7.9,12.7-7.9c8.9,0,13.4,2.3,13.4,7c0,0.4-0.1,0.8-0.4,1.1c-0.3,0.3-0.6,0.4-1.1,0.4
		h-3.6c-1.2,0-2.1-0.4-2.8-1.3c-0.9-1.1-2.5-1.7-4.9-1.7c-3.2,0-4.9,0.8-4.8,2.3c0,0.7,0.6,1.3,1.9,1.8c1.3,0.5,2.8,0.9,4.6,1.3
		c1.8,0.4,3.6,0.8,5.4,1.4c1.8,0.6,3.3,1.5,4.6,2.7c1.3,1.2,1.9,2.8,1.9,4.7c0,5.3-4.5,7.9-13.5,7.9c-8.9,0-13.4-2.3-13.4-7
		c0-0.4,0.1-0.8,0.4-1.1c0.3-0.3,0.6-0.4,1.1-0.4h3.6c1.2,0,2.1,0.4,2.8,1.3c0.9,1.1,2.5,1.7,4.9,1.6c3.7,0,5.6-0.8,5.6-2.3
		c0-0.7-0.6-1.3-1.9-1.8s-2.8-0.9-4.6-1.3c-1.8-0.4-3.6-0.9-5.4-1.4c-1.8-0.6-3.3-1.5-4.6-2.7C262.1,20.1,261.5,18.5,261.5,16.7z"/>
</g>
</svg>
