<svg xmlns="http://www.w3.org/2000/svg" xml:space="preserve" id="Layer_1" x="0" y="0" version="1.1" viewBox="5.2 5.7 813.7 94.3"><style>.st0{fill:#00f}</style><path d="M5.2 63.9c0-22.6 13.4-36 35.7-36 18.9 0 31.2 9.9 33.9 27H56.9c-2.3-8-7.9-12.7-16-12.7-10.8 0-17.1 8.1-17.1 21.6s6.3 21.5 17.1 21.5c8.5 0 14.2-5 16.3-13.5h17.9c-2.6 17.8-14.9 28-34.2 28-22.3.1-35.7-13.3-35.7-35.9zM124.9 29.3h18.2v69.2h-18.2V74.1h-.3c0 16.1-8 25.8-21.6 25.8-14.9 0-23.7-10.6-23.7-28.4V29.3h18.2v41.4c0 9.4 4.8 14.8 13 14.8 9.1 0 14.5-6.9 14.5-18.8V29.3zM148.3 76h17c0 7.7 5.4 12.3 14.5 12.3 8.8 0 13.9-3.3 13.9-9.1 0-7.3-8.1-8.7-17.2-10.2-12-1.9-26.3-4.3-26.3-20.1 0-13.1 11-21 29.6-21 18.5 0 29.5 8.4 29.5 22.8h-17c0-7.3-4.5-11.4-12.5-11.4-7.6 0-12.1 3-12.1 8.1 0 6.2 7.6 7.4 16.4 9 12.3 2.1 27.2 4.5 27.2 20.8 0 14.2-11.7 22.8-31.4 22.8-20-.1-31.6-9-31.6-24zM259.6 41.8h-21.5v33.4c0 6.5 4.1 10.2 11 10.2 3.3 0 6.8-.8 9.2-2.2v13.5a38 38 0 0 1-15 3.2c-14.8 0-23.4-8.3-23.4-22.3V41.8H210V29.3h11V6.1h18.2v5.8c0 8.8-6.6 15-17.6 17.1v.3h38.1v12.5z" class="st0"></path><path d="M258.5 63.9c0-22.6 13.5-36 36.1-36s36 13.4 36 36-13.4 36-36 36-36.1-13.4-36.1-36zm53.6 0c0-13.5-6.5-21.6-17.5-21.6s-17.5 8.1-17.5 21.6 6.5 21.5 17.5 21.5 17.5-8 17.5-21.5zM446 55.6v42.9h-18.2V56.4c0-9-4.8-14.2-13-14.2-9.1 0-14.5 6.8-14.5 18.1v38.2h-18.2V56.4c0-9-4.7-14.2-12.8-14.2-9.2 0-14.6 6.8-14.6 18.1v38.2h-18.2V29.3h18.2v24h.3c0-16 8.4-25.4 22.3-25.4 14.5 0 23 9.8 23 25.4h.3c0-16 8-25.4 21.6-25.4 15 0 23.8 10.2 23.8 27.7zM519.3 65.9h-50.5c.7 12.7 6.8 20.1 16.5 20.1 8.5 0 14.5-4.7 16.3-12.3h17.6c-2.5 16.4-15.2 26.1-33.9 26.1-21.5 0-34.2-13.4-34.2-36 0-22.8 12.7-36 34.2-36 21.2 0 33.9 13.2 33.9 36v2.1zM469 59.7h32.5c-1.1-11.6-7-18.2-16.1-18.2-9.2 0-15.1 6.7-16.4 18.2zM575.2 30.1 570 46.4a20.8 20.8 0 0 0-9.7-2.5c-10.6 0-17 8.7-17 23.3v31.3h-18.2V29.3h18.2v28.5h.3c0-18.9 7.9-29.9 21-29.9 4 0 7.8.8 10.6 2.2zM570.5 76h17c0 7.7 5.4 12.3 14.5 12.3 8.8 0 13.9-3.3 13.9-9.1 0-7.3-8.1-8.7-17.2-10.2-12-1.9-26.3-4.3-26.3-20.1 0-13.1 11-21 29.6-21 18.5 0 29.5 8.4 29.5 22.8h-17c0-7.3-4.5-11.4-12.5-11.4-7.6 0-12.1 3-12.1 8.1 0 6.2 7.6 7.4 16.4 9 12.3 2.1 27.2 4.5 27.2 20.8 0 14.2-11.7 22.8-31.4 22.8-20-.1-31.6-9-31.6-24zM699.9 18.1v80h-19V23h-.3c0 17-7.6 26.9-20.3 26.9V33.4c13 0 20.5-5.8 20.5-15.3h19.1zM707.5 75.6h17c0 7.7 5.4 12.3 14.5 12.3 8.8 0 13.9-3.3 13.9-9.1 0-7.3-8.1-8.7-17.2-10.2-12-1.9-26.3-4.3-26.3-20.1 0-13.1 11-21 29.6-21 18.5 0 29.5 8.4 29.5 22.8h-17c0-7.3-4.5-11.4-12.5-11.4-7.6 0-12.1 3-12.1 8.1 0 6.2 7.6 7.4 16.4 9 12.3 2.1 27.2 4.5 27.2 20.8 0 14.2-11.7 22.8-31.4 22.8-20-.1-31.6-8.9-31.6-24zM818.8 41.4h-21.5v33.4c0 6.5 4.1 10.2 11 10.2 3.3 0 6.8-.8 9.2-2.2v13.5a38 38 0 0 1-15 3.2c-14.8 0-23.4-8.3-23.4-22.3V41.4h-9.9V28.9h11V5.7h18.2v5.8c0 8.8-6.6 15-17.6 17.1v.3h38.1v12.5z" class="st0"></path></svg>